<?xml version="1.0" encoding="UTF-8"?><!DOCTYPE svg PUBLIC "-//W3C//DTD SVG 1.1//EN" "http://www.w3.org/Graphics/SVG/1.1/DTD/svg11.dtd"><svg xmlns="http://www.w3.org/2000/svg" xmlns:xlink="http://www.w3.org/1999/xlink"><symbol id="icon-cat" viewBox="0 0 512 512"><path d="M444.379 3.741c10.828-8.798 27.018-1.092 27.018 12.859v222.01l-182.26-107.699L444.379 3.741z" fill="#ffc850"/><path d="M454.828 228.819l-110.973-65.574 92.462-104.241c6.465-7.288 18.511-2.716 18.511 7.027v162.788z" fill="#ebaf4b"/><path d="M67.619 3.741C56.79-5.057 40.601 2.649 40.601 16.6v222.01l182.26-107.699L67.619 3.741z" fill="#ffc850"/><path d="M57.17 228.819l110.973-65.574L75.681 59.004c-6.465-7.288-18.511-2.716-18.511 7.027v162.788z" fill="#ebaf4b"/><ellipse cx="255.999" cy="292.46" rx="231.97" ry="219.54" fill="#ffdc64"/><path d="M289.137 429.155v16.569c0 18.302-14.836 33.138-33.138 33.138s-33.138-14.836-33.138-33.138v-16.569l33.138-16.569 33.138 16.569z" fill="#ff8087"/><path d="M274.293 343.862h-36.588c-7.899 0-12.273 9.157-7.307 15.3l18.295 22.634c3.76 4.651 10.852 4.651 14.613 0l18.295-22.634c4.965-6.143.592-15.3-7.308-15.3z" fill="#5d5360"/><g fill="#e1a546"><path d="M479.673 437.439a8.253 8.253 0 0 1-3.815-.934c-50.092-26.047-128.491-41.524-129.28-41.678-4.49-.874-7.419-5.226-6.545-9.717a8.258 8.258 0 0 1 9.717-6.545c3.301.643 81.515 16.076 133.754 43.239a8.286 8.286 0 0 1-3.831 15.635zM496.255 379.451a8.28 8.28 0 0 1-2.156-.287c-46.435-12.483-130.87-10.113-131.703-10.077-4.652.134-8.398-3.459-8.531-8.03a8.284 8.284 0 0 1 8.03-8.531c3.56-.113 87.736-2.476 136.509 10.635a8.288 8.288 0 0 1 5.849 10.153c-.996 3.698-4.341 6.133-7.998 6.137z"/></g><path d="M313.991 495.431c-128.112 0-231.967-98.291-231.967-219.54 0-89.035 56.034-165.634 136.518-200.081-110.294 16.952-194.51 107.475-194.51 216.65C24.032 413.709 127.887 512 255.999 512c34.037 0 66.328-6.995 95.449-19.459-12.198 1.875-24.7 2.89-37.457 2.89z" fill="#ffc850"/><g fill="#e1a546"><path d="M32.324 437.439a8.286 8.286 0 0 1-3.831-15.635c52.24-27.163 130.453-42.596 133.754-43.239 4.494-.902 8.839 2.055 9.717 6.545.874 4.49-2.055 8.843-6.545 9.717-.789.154-79.189 15.631-129.28 41.678a8.25 8.25 0 0 1-3.815.934zM15.743 379.451a8.29 8.29 0 0 1-7.997-6.137c-1.185-4.421 1.432-8.964 5.849-10.153 48.777-13.115 132.941-10.736 136.509-10.635a8.285 8.285 0 0 1 8.03 8.531c-.138 4.571-4.098 8.196-8.531 8.03-.849-.028-85.297-2.407-131.703 10.077a8.293 8.293 0 0 1-2.157.287z"/></g><path d="M160.727 321.456c-15.948 0-28.996-13.048-28.996-28.996v-16.569c0-15.948 13.048-28.996 28.996-28.996 15.948 0 28.996 13.048 28.996 28.996v16.569c0 15.947-13.048 28.996-28.996 28.996z" fill="#4b3f4e"/><path d="M160.727 246.895c-1.418 0-2.778.221-4.142.421v41.002c0 9.151 7.418 16.569 16.569 16.569s16.569-7.418 16.569-16.569v-12.427c0-15.948-13.049-28.996-28.996-28.996z" fill="#5d5360"/><circle cx="160.729" cy="267.61" r="12.427" fill="#fff"/><path d="M351.271 321.456c-15.948 0-28.996-13.048-28.996-28.996v-16.569c0-15.948 13.048-28.996 28.996-28.996 15.948 0 28.996 13.048 28.996 28.996v16.569c0 15.947-13.048 28.996-28.996 28.996z" fill="#4b3f4e"/><path d="M351.271 246.895c-1.418 0-2.778.221-4.142.421v41.002c0 9.151 7.418 16.569 16.569 16.569s16.569-7.418 16.569-16.569v-12.427c0-15.948-13.048-28.996-28.996-28.996z" fill="#5d5360"/><circle cx="351.269" cy="267.61" r="12.427" fill="#fff"/><path d="M262.408 382.15l-18.295-36.215c-.332-.658-.518-1.378-.769-2.074h-5.639c-7.899 0-12.273 9.157-7.308 15.3l18.295 22.634c3.55 4.39 9.981 4.485 13.863.587-.044-.085-.102-.143-.147-.232z" fill="#4b3f4e"/><path d="M255.999 412.586l-33.138 16.569v16.569c0 2.629.383 5.154.961 7.606a74.65 74.65 0 0 0 23.892-7.153v7.831a8.285 8.285 0 0 0 16.57 0v-7.83a74.638 74.638 0 0 0 23.892 7.152c.578-2.452.961-4.978.961-7.606v-16.569l-33.138-16.569z" fill="#e6646e"/><path d="M297.422 437.439c-11.719 0-23.013-3.483-32.653-10.073-5.162-3.527-12.374-3.527-17.544 0-9.636 6.59-20.93 10.073-32.649 10.073-14.259 0-27.993-5.275-38.672-14.85-3.406-3.058-3.689-8.297-.635-11.703s8.281-3.689 11.703-.635c13.911 12.483 35.683 13.847 50.905 3.434 10.841-7.403 25.408-7.403 36.241 0 15.226 10.408 37.001 9.041 50.913-3.43a8.286 8.286 0 0 1 11.06 12.338c-10.681 9.575-24.41 14.846-38.669 14.846z" fill="#ebaf4b"/></symbol><symbol id="icon-dog" viewBox="0 0 512 512"><path d="M437.677 45.419h-82.581C325.161 57.29 318.525 37.161 256 37.161s-69.161 20.129-99.097 8.258h-82.58L63.312 252.904c6.882 81.548 57.462 125.935 97.377 142.107h190.623c39.914-16.172 90.495-60.559 97.377-142.107L437.677 45.419z" fill="#f5dcb4"/><path d="M355.097 45.419C448.078 73.25 397.46 216.774 457.33 278.813c8.595 8.906 23.781 4.95 27.368-6.895 4.74-15.651 9.474-40.411 8.721-75.789C492.387 147.613 512 144.517 512 144.517S487.226 28.903 412.903 28.903c-24.774 0-57.806 16.516-57.806 16.516z" fill="#965a50"/><path d="M169.29 260.129c-15.897 0-28.903-13.006-28.903-28.903V214.71c0-15.897 13.006-28.903 28.903-28.903 15.897 0 28.903 13.006 28.903 28.903v16.516c.001 15.898-13.006 28.903-28.903 28.903z" fill="#4b3f4e"/><path d="M169.29 185.806c-1.413 0-2.769.221-4.129.419v40.871c0 9.121 7.395 16.516 16.516 16.516 9.122 0 16.516-7.395 16.516-16.516V214.71c.001-15.896-13.006-28.904-28.903-28.904z" fill="#5d5360"/><circle cx="169.29" cy="206.451" r="12.387" fill="#fff"/><path d="M342.71 260.129c-15.897 0-28.903-13.006-28.903-28.903V214.71c0-15.897 13.006-28.903 28.903-28.903 15.897 0 28.903 13.006 28.903 28.903v16.516c0 15.898-13.007 28.903-28.903 28.903z" fill="#4b3f4e"/><path d="M342.71 185.806c-1.413 0-2.769.221-4.129.419v40.871c0 9.121 7.395 16.516 16.516 16.516 9.122 0 16.516-7.395 16.516-16.516V214.71c0-15.896-13.007-28.904-28.903-28.904z" fill="#5d5360"/><circle cx="342.71" cy="206.451" r="12.387" fill="#fff"/><path d="M457.33 278.814c8.595 8.906 23.781 4.95 27.368-6.896 2.718-8.976 5.399-21.06 7.08-36.313-16.234-8.092-30.092-33.91-38.617-77.669C437.677 78.452 416 34.065 355.097 45.419 448.078 73.25 397.46 216.775 457.33 278.814z" fill="#824641"/><path d="M160.689 395.011h39.141s-68.732-46.107-80.087-127.656C97.654 108.712 139.7 61.247 176.067 49.135c-5.761.195-11.745-.774-19.163-3.715H74.323L63.312 252.904c6.882 81.548 57.462 125.935 97.377 142.107z" fill="#e7c9a5"/><path d="M156.903 45.419C63.922 73.25 114.541 216.775 54.67 278.813c-8.595 8.906-23.781 4.95-27.368-6.895-4.74-15.651-9.474-40.411-8.721-75.789C19.613 147.613 0 144.517 0 144.517S24.774 28.903 99.097 28.903c24.774 0 57.806 16.516 57.806 16.516z" fill="#965a50"/><path d="M154.139 44.104c-8.38-3.888-34.516-15.201-55.042-15.201C24.774 28.903 0 144.517 0 144.517s19.613 3.097 18.581 51.613c-.014.648.005 1.231-.005 1.872C66.097 17.715 139.119 37.773 154.139 44.104z" fill="#824641"/><ellipse cx="256" cy="400.52" rx="90.84" ry="66.06" fill="#bc8e78"/><path d="M214.71 400.516v41.29c0 22.804 18.486 41.29 41.29 41.29s41.29-18.486 41.29-41.29v-41.29h-82.58z" fill="#ff8087"/><path d="M214.71 432.768c11.941-1.496 23.208-5.129 33.032-10.622v11.402a8.259 8.259 0 0 0 16.516 0v-11.507c9.729 5.552 21.026 9.225 33.032 10.73v-32.256h-82.58v32.253z" fill="#e6646e"/><path d="M309.677 326.194H202.323c-34.206 0-61.935 20.335-61.935 45.419s27.73 45.419 61.935 45.419c17.225 0 32.782-5.169 43.995-13.498 2.839-2.108 6.262-3.162 9.679-3.162 3.423 0 6.846 1.053 9.685 3.162 11.213 8.329 26.77 13.498 43.995 13.498 34.206 0 61.935-20.335 61.935-45.419.001-25.084-27.729-45.419-61.935-45.419z" fill="#d4af91"/><path d="M256 293.161c27.365 0 49.548 14.789 49.548 33.032 0 17.594-20.824 26.858-35.853 33.708a32.98 32.98 0 0 1-27.392 0c-15.029-6.85-35.853-16.114-35.853-33.708.002-18.242 22.185-33.032 49.55-33.032z" fill="#5d5360"/><path d="M230.968 317.161c-1.155-10.393 6.166-21.507 6.166-21.507-18.003 4.949-30.682 16.751-30.682 30.539 0 17.593 20.824 26.857 35.853 33.708a32.988 32.988 0 0 0 27.392 0c3.232-1.473 6.732-3.069 10.235-4.824-20.319-3.593-46.642-17.012-48.964-37.916z" fill="#4b3f4e"/></symbol><symbol id="icon-fox" viewBox="0 0 512 512"><path d="M439.893 4.169c11.115-4.246 23.06 4.141 22.543 16.028-4.168 95.801-37.145 178.387-37.145 178.387l-124.559-87.398C350.393 51.372 410.485 15.404 439.893 4.169z" fill="#d26437"/><path d="M342.252 140.319c32.368-52.714 81.19-103.046 96.647-112.026 6.266-3.64 11.768 5.266 10.365 17.005-7.465 62.48-21.005 118.599-29.343 149.519l-77.669-54.498z" fill="#b44632"/><path d="M72.107 4.169C60.992-.077 49.047 8.31 49.564 20.197c4.168 95.801 37.145 178.387 37.145 178.387l124.559-87.398C161.607 51.372 101.515 15.404 72.107 4.169z" fill="#d26437"/><path d="M169.748 140.319C137.38 87.605 88.558 37.273 73.101 28.293c-6.266-3.64-11.768 5.266-10.365 17.005 7.465 62.48 21.005 118.599 29.343 149.519l77.669-54.498z" fill="#b44632"/><g fill="#ebc9a0"><ellipse cx="256" cy="475.92" rx="49.548" ry="33.03"/><path d="M198.194 467.659c-57.806-33.032-153.573-68.995-153.573-68.995l9.19-27.571c-3.874-1.84-30.413-2.187-53.81 5.727l24.774-41.29h173.419v132.129zM313.806 467.659c57.806-33.032 153.573-68.995 153.573-68.995l-9.19-27.571c3.874-1.84 30.413-2.187 53.81 5.727l-24.774-41.29H313.806v132.129z"/></g><path d="M256 96.047c120.377 0 223.716 120.61 255.628 278.91.125.621.249 1.242.372 1.864 0 0-60.903-62.968-126.968-29.419-24.499 12.441-36.129 39.775-36.129 69.644 0 49.524-39.699 76.926-86.73 57.891a16.348 16.348 0 0 0-12.347 0c-47.031 19.036-86.73-8.366-86.73-57.891 0-29.869-11.631-57.203-36.129-69.644C60.903 313.853 0 376.821 0 376.821c.123-.622.247-1.243.372-1.864C32.284 216.656 135.623 96.047 256 96.047z" fill="#eb874b"/><path d="M169.29 327.272c-15.897 0-28.903-13.006-28.903-28.903v-16.516c0-15.897 13.006-28.903 28.903-28.903 15.897 0 28.903 13.006 28.903 28.903v16.516c.001 15.897-13.006 28.903-28.903 28.903z" fill="#4b3f4e"/><path d="M169.29 252.95c-1.413 0-2.769.221-4.129.419v40.871c0 9.121 7.395 16.516 16.516 16.516 9.122 0 16.516-7.395 16.516-16.516v-12.387c.001-15.897-13.006-28.903-28.903-28.903z" fill="#5d5360"/><circle cx="169.29" cy="273.6" r="12.387" fill="#fff"/><path d="M342.71 327.272c-15.897 0-28.903-13.006-28.903-28.903v-16.516c0-15.897 13.006-28.903 28.903-28.903 15.897 0 28.903 13.006 28.903 28.903v16.516c0 15.897-13.007 28.903-28.903 28.903z" fill="#4b3f4e"/><path d="M342.71 252.95c-1.413 0-2.769.221-4.129.419v40.871c0 9.121 7.395 16.516 16.516 16.516 9.122 0 16.516-7.395 16.516-16.516v-12.387c0-15.897-13.007-28.903-28.903-28.903z" fill="#5d5360"/><circle cx="342.71" cy="273.6" r="12.387" fill="#fff"/><path d="M247.742 475.699c.715-.27 1.431-.546 2.149-.832a16.526 16.526 0 0 1 12.219 0c.718.286 1.434.562 2.149.832v-32.814h-16.516l-.001 32.814z" fill="#d26437"/><path d="M255.523 393.337c18.507 0 33.51 12.262 33.51 27.389 0 14.588-14.083 22.269-24.247 27.949-5.892 3.292-12.633 3.292-18.525 0-10.164-5.68-24.247-13.361-24.247-27.949-.001-15.127 15.002-27.389 33.509-27.389z" fill="#5d5360"/><path d="M263.731 447.968c-10.164-7.302-24.247-17.178-24.247-35.934 0-6.147 1.632-11.838 4.266-16.868-12.676 3.905-21.737 13.832-21.737 25.559 0 14.588 14.083 22.269 24.247 27.949 5.892 3.292 12.634 3.292 18.525 0l.142-.08c-.394-.241-.809-.347-1.196-.626z" fill="#4b3f4e"/><path d="M256 96.047l-16.059.803C126.521 107.015 30.854 223.749.372 374.956A558.31 558.31 0 0 0 0 376.82s49.151-50.767 107.036-36.784C114.274 134.366 242.558 96.047 256 96.047z" fill="#d26437"/></symbol><symbol id="icon-hamster" viewBox="0 0 512.001 512.001"><ellipse transform="rotate(-116.481 108.28 101.773)" cx="108.281" cy="101.775" rx="88.811" ry="72.091" fill="#ebaf4b"/><ellipse transform="rotate(-116.481 96.1 108.102)" cx="96.101" cy="108.104" rx="69.988" ry="47.011" fill="#ff8087"/><ellipse transform="rotate(116.481 404.265 101.783)" cx="404.268" cy="101.782" rx="88.811" ry="72.091" fill="#ebaf4b"/><ellipse transform="rotate(116.481 416.445 108.116)" cx="416.448" cy="108.115" rx="69.988" ry="47.011" fill="#ff8087"/><path d="M256.003 492.633c18.525 0 37.049.864 55.483 2.592 9.921.93 20.084 1.032 30.422.231 86.812-6.726 156.824-78.193 161.797-165.124 2.531-44.23-11.297-85.149-35.979-117.311-19.267-25.105-37.083-51.474-49.254-80.686-26.507-63.616-89.249-108.34-162.47-108.34s-135.964 44.724-162.47 108.34c-12.172 29.212-29.988 55.581-49.254 80.686-24.682 32.161-38.51 73.081-35.979 117.311 4.974 86.93 74.985 158.398 161.797 165.124 10.338.801 20.501.699 30.422-.231a594.59 594.59 0 0 1 55.485-2.592z" fill="#ffc850"/><path d="M81.308 352.805c-7.419-46.715 2.321-91.638 24.161-128.4 17.048-28.697 32.469-58.584 41.785-90.896 13.029-45.193 42.311-83.6 81.474-107.399-61.262 9.536-112.049 50.671-135.196 106.225-12.171 29.212-29.988 55.581-49.254 80.687-24.682 32.161-38.51 73.08-35.979 117.311 4.974 86.93 74.985 158.397 161.797 165.124 6.86.531 13.606.525 20.292.283-55.924-24.966-98.779-78.072-109.08-142.935z" fill="#ebaf4b"/><path d="M368.001 333.995c-57.837 15.571-89.682-21.1-85.667-56.667 4.667-41.333-41-45.666-49.333-11.667-12.795 52.203-32.921 71.931-107.5 65.833-68.42-5.594-97.889 63.976-60.807 117.266 28.273 26.254 64.957 43.561 105.401 46.694 10.338.801 20.501.699 30.422-.231a594.628 594.628 0 0 1 55.486-2.592c18.524 0 37.049.864 55.482 2.592 9.921.93 20.084 1.032 30.422.231 47.767-3.701 90.369-27.073 119.927-61.767 34.693-61.705-19.56-119.688-93.833-99.692z" fill="#faebc8"/><path d="M256 351.995c26.51 0 48.001 14.327 48.001 32 0 17.044-20.173 26.018-34.733 32.654a31.95 31.95 0 0 1-26.536 0c-14.559-6.636-34.733-15.61-34.733-32.654 0-17.673 21.491-32 48.001-32z" fill="#ff96a0"/><path d="M287.013 463.995c-8.984 0-17.75-2.348-25.355-6.785a11.224 11.224 0 0 0-11.312-.004c-7.605 4.441-16.371 6.789-25.359 6.789-15.773 0-30.508-7.191-39.418-19.238-2.625-3.555-1.875-8.563 1.676-11.191a8 8 0 0 1 11.191 1.676c5.902 7.988 15.832 12.754 26.551 12.754 6.152 0 12.129-1.59 17.285-4.602a27.233 27.233 0 0 1 27.461 0c5.152 3.008 11.133 4.602 17.281 4.602 10.723 0 20.652-4.77 26.555-12.754 2.637-3.551 7.641-4.305 11.188-1.68a8 8 0 0 1 1.68 11.188c-8.912 12.05-23.647 19.245-39.424 19.245z" fill="#ebc9a0"/><g fill="#dcb996"><path d="M437.497 424.999a7.944 7.944 0 0 1-3.133-.645c-32.344-13.793-74.402-16.348-74.824-16.371-4.41-.254-7.781-4.035-7.527-8.449s3.953-7.719 8.449-7.527c1.832.105 45.293 2.754 80.176 17.629 4.066 1.734 5.957 6.434 4.223 10.496a8.003 8.003 0 0 1-7.364 4.867zM504.001 391.999a7.954 7.954 0 0 1-2.824-.52c-54.688-20.633-151.664-14.359-152.637-14.297-4.43.387-8.223-3.031-8.52-7.441a7.995 7.995 0 0 1 7.441-8.52c4.102-.277 101.406-6.578 159.363 15.289a8 8 0 0 1 4.66 10.309 8.001 8.001 0 0 1-7.483 5.18z"/></g><path d="M172.001 303.995c-15.4 0-28-12.6-28-28v-16c0-15.4 12.6-28 28-28s28 12.6 28 28v16c0 15.4-12.6 28-28 28z" fill="#4b3f4e"/><path d="M172.001 231.995c-1.369 0-2.682.214-4 .406v39.594c0 8.836 7.164 16 16 16 8.837 0 16-7.164 16-16v-12c0-15.4-12.6-28-28-28z" fill="#5d5360"/><circle cx="172" cy="251.994" r="12" fill="#fff"/><path d="M340.001 303.995c-15.4 0-28-12.6-28-28v-16c0-15.4 12.6-28 28-28s28 12.6 28 28v16c0 15.4-12.6 28-28 28z" fill="#4b3f4e"/><path d="M340.001 231.995c-1.369 0-2.682.214-4 .406v39.594c0 8.836 7.164 16 16 16 8.837 0 16-7.164 16-16v-12c0-15.4-12.6-28-28-28z" fill="#5d5360"/><circle cx="340" cy="251.994" r="12" fill="#fff"/><path d="M266.734 412.578c-14.56-7.86-34.733-18.49-34.733-38.679 0-7.283 2.647-14.063 7.156-19.838C220.968 358.612 208 370.279 208 383.995c0 17.043 20.173 26.018 34.732 32.654a31.957 31.957 0 0 0 26.536 0c1.17-.533 2.384-1.088 3.614-1.655-2.093-.567-4.159-1.342-6.148-2.416z" fill="#ff8087"/><path d="M81.308 352.805c-.615-3.875-.937-7.713-1.319-11.559-33.745 20.427-42.568 68.322-15.295 107.515 28.273 26.254 64.957 43.561 105.401 46.694 6.86.531 13.606.525 20.292.283-55.923-24.964-98.778-78.07-109.079-142.933z" fill="#f5dcb4"/><g fill="#dcb996"><path d="M74.505 424.999a8.002 8.002 0 0 1-7.363-4.867 7.998 7.998 0 0 1 4.223-10.496c34.883-14.875 78.344-17.523 80.176-17.629 4.395-.164 8.191 3.121 8.445 7.527.258 4.41-3.113 8.191-7.523 8.449-.422.023-42.555 2.609-74.824 16.371a7.953 7.953 0 0 1-3.134.645zM8.001 391.999a8.004 8.004 0 0 1-7.484-5.18 8 8 0 0 1 4.66-10.309c57.953-21.863 155.25-15.582 159.363-15.289a7.995 7.995 0 0 1 7.441 8.52c-.301 4.414-4.129 7.836-8.52 7.441-.977-.066-97.949-6.328-152.637 14.297a7.956 7.956 0 0 1-2.823.52z"/></g></symbol><symbol id="icon-koala" viewBox="0 0 512 512"><circle cx="421.16" cy="90.84" r="90.84" fill="#c0bcc1"/><circle cx="421.16" cy="90.84" r="57.806" fill="#9c969e"/><circle cx="90.84" cy="90.84" r="90.84" fill="#c0bcc1"/><circle cx="90.84" cy="90.84" r="57.806" fill="#9c969e"/><path d="M256 49.548c-132.263 0-239.484 99.826-239.484 222.968 0 70.75 35.394 133.804 90.596 174.651 40.901 30.265 91.242 45.011 142.122 45.061l13.039.013c50.935.05 101.356-14.634 142.344-44.873 55.357-40.841 90.867-103.985 90.867-174.851 0-123.143-107.221-222.969-239.484-222.969z" fill="#c9c6ca"/><path d="M173.176 453.743c-55.202-42.37-90.596-107.776-90.596-181.166 0-106.453 74.493-196.049 175.863-222.971-.818-.008-1.624-.057-2.444-.057-132.263 0-239.484 99.826-239.484 222.968 0 70.75 35.394 133.804 90.596 174.651 40.901 30.265 91.242 45.011 142.122 45.061l3.344.003c-28.482-7.531-55.567-20.195-79.401-38.489z" fill="#c0bcc1"/><path d="M256 512c-27.692 0-50.458-21.837-51.611-49.505l-3.789-90.932c-1.313-31.501 23.871-57.756 55.4-57.756s56.712 26.255 55.4 57.756l-3.789 90.932C306.458 490.163 283.692 512 256 512z" fill="#dbd9dc"/><path d="M256 313.806c-31.529 0-56.713 26.255-55.4 57.756l3.06 73.447c13.838 5.681 32.143 9.184 52.339 9.184s38.502-3.503 52.339-9.184l3.06-73.447c1.315-31.501-23.869-57.756-55.398-57.756z" fill="#5d5360"/><path d="M144.516 313.806c-15.897 0-28.903-13.006-28.903-28.903v-16.516c0-15.897 13.006-28.903 28.903-28.903 15.897 0 28.903 13.006 28.903 28.903v16.516c0 15.897-13.006 28.903-28.903 28.903z" fill="#4b3f4e"/><path d="M144.516 239.484c-1.413 0-2.769.221-4.129.419v40.871c0 9.121 7.395 16.516 16.516 16.516 9.122 0 16.516-7.395 16.516-16.516v-12.387c0-15.897-13.006-28.903-28.903-28.903z" fill="#5d5360"/><circle cx="144.52" cy="260.13" r="12.387" fill="#fff"/><path d="M367.484 313.806c-15.897 0-28.903-13.006-28.903-28.903v-16.516c0-15.897 13.006-28.903 28.903-28.903 15.897 0 28.903 13.006 28.903 28.903v16.516c0 15.897-13.006 28.903-28.903 28.903z" fill="#4b3f4e"/><path d="M367.484 239.484c-1.413 0-2.769.221-4.129.419v40.871c0 9.121 7.395 16.516 16.516 16.516 9.122 0 16.516-7.395 16.516-16.516v-12.387c0-15.897-13.006-28.903-28.903-28.903z" fill="#5d5360"/><circle cx="367.48" cy="260.13" r="12.387" fill="#fff"/><path d="M328.774 432.863a8.257 8.257 0 0 0-11.524-1.895c-12.863 9.234-36.331 14.968-61.25 14.968-4.993 0-9.907-.256-14.697-.715-4.039-.387-7.118-3.805-7.287-7.859l-2.742-65.799c-1.091-26.172 16.131-48.666 40.062-55.548-9-2.588-18.873-3.149-29.295-.344-25.746 6.929-42.439 31.962-41.329 58.601l2.563 61.521c-3.149-1.487-6.081-3.07-8.527-4.826a8.24 8.24 0 0 0-11.524 1.895 8.26 8.26 0 0 0 1.895 11.524c15.758 11.31 42.254 18.065 70.879 18.065 28.629 0 55.121-6.754 70.879-18.065a8.25 8.25 0 0 0 1.897-11.523z" fill="#4b3f4e"/></symbol><symbol id="icon-lion" viewBox="0 0 512.001 512.001"><path d="M256.005 12.733a16.486 16.486 0 0 0 8.372-2.298C272.375 5.726 286.098 0 305.547 0c37.319 0 66.067 16.516 66.067 16.516l-16.516 16.516c17.752 4.734 27.871 7.57 47.369 17.786 68.569 35.927 101.276 114.343 101.276 114.343h-33.032C512 231.226 512 322.065 512 322.065l-24.774-8.258s0 74.323-33.032 123.871l-24.774-16.516s-24.774 41.29-66.065 66.065l-16.516-16.516s-41.29 33.032-90.839 41.29c-49.548-8.258-90.839-41.29-90.839-41.29l-16.516 16.516c-41.29-24.774-66.065-66.065-66.065-66.065l-24.774 16.516C24.775 388.13 24.775 313.807 24.775 313.807L.001 322.065s0-90.839 41.29-156.903H8.259S40.966 86.746 109.535 50.819c19.498-10.216 29.617-13.052 47.369-17.786l-16.516-16.516S169.135.001 206.455.001c19.449 0 33.172 5.726 41.17 10.436a16.486 16.486 0 0 0 8.372 2.298" fill="#d26437"/><path d="M187.22 91.077s23.877-48.754 64.061-79.097c-1.255-.379-2.491-.858-3.657-1.544C239.627 5.726 225.904 0 206.455 0c-37.319 0-66.067 16.516-66.067 16.516l16.516 16.516c-17.752 4.734-27.871 7.57-47.369 17.786C40.966 86.745 8.259 165.161 8.259 165.161h33.032C.001 231.226.001 322.065.001 322.065l24.774-8.258s0 74.323 33.032 123.871l24.774-16.516s24.774 41.29 66.065 66.065l16.516-16.516s41.29 33.032 90.839 41.29c0-.001-59.871-24.775-68.781-420.924z" fill="#b44632"/><path d="M410.232 50.111c19.546-3.79 37.454 12.093 35.567 31.913-2.343 24.606-20.422 67.997-45.196 93.546l-79.57-80.086c30.489-24.202 68.359-41.332 89.199-45.373z" fill="#ebaf4b"/><path d="M342.607 117.198c25.356-19.382 62.841-44.879 73.223-45.922 11.932-1.199 19.371 15.26 14.706 33.023-4.05 15.422-19.498 43.71-34.876 66.296l-53.053-53.397z" fill="#e18c46"/><path d="M101.77 50.111c-19.546-3.79-37.454 12.093-35.567 31.913 2.343 24.606 20.422 67.997 45.196 93.546l79.57-80.086C160.48 71.282 122.61 54.152 101.77 50.111z" fill="#ebaf4b"/><path d="M169.395 117.198c-25.356-19.382-62.841-44.879-73.223-45.922-11.932-1.199-19.371 15.26-14.706 33.023 4.05 15.422 19.498 43.71 34.876 66.296l53.053-53.397z" fill="#e18c46"/><path d="M355.098 99.097c-32.593-25.35-99.097 16.516-99.097 16.516s-66.504-41.866-99.097-16.516c-74.323 57.806-90.839 222.968-82.581 256 6.009 24.034 57.806 66.065 115.613 82.581h132.129c57.806-16.516 109.604-58.546 115.613-82.581 8.258-33.032-8.258-198.194-82.58-256z" fill="#ffc850"/><path d="M125.236 403.816c-6.343-39.607 8.658-215.343 61.984-312.739-11.211-.54-21.899 1.473-30.316 8.02-74.323 57.806-90.839 222.968-82.581 256 3.617 14.469 23.889 35.439 52.017 53.458-.424-1.611-.862-3.229-1.104-4.739z" fill="#ebaf4b"/><path d="M437.678 313.701c-6.009 24.034-57.806 66.065-115.613 82.581H189.936c-57.806-16.516-109.604-58.546-115.613-82.581-.376-1.501-.68-3.363-.95-5.388-1.635 21.488-1.146 38.401.95 46.784 6.009 24.034 57.806 66.065 115.613 82.581h132.129c57.806-16.516 109.604-58.546 115.613-82.581 2.096-8.383 2.585-25.296.95-46.784-.269 2.024-.574 3.886-.95 5.388z" fill="#faebc8"/><path d="M187.462 424.27c4.287 26.336 27.139 46.44 54.686 46.44h27.705c27.433 0 50.211-19.938 54.633-46.113l-68.48-11.693-68.544 11.366z" fill="#f5dcb4"/><path d="M301.42 346.839c-19.155 0-35.92 7.742-45.419 19.356-9.499-11.614-26.265-19.356-45.419-19.356-29.645 0-53.677 18.486-53.677 41.29s24.032 41.29 53.677 41.29c19.155 0 35.92-7.742 45.419-19.356 9.499 11.614 26.265 19.356 45.419 19.356 29.645 0 53.677-18.486 53.677-41.29s-24.031-41.29-53.677-41.29z" fill="#faebc8"/><path d="M298.017 437.411c-14.427 0-28.016-4.782-39.298-13.827-1.597-1.282-3.831-1.282-5.444 0-11.274 9.044-24.863 13.827-39.29 13.827-34.855 0-63.21-28.56-63.21-63.665 0-4.56 3.694-8.258 8.258-8.258s8.258 3.698 8.258 8.258c0 26 20.944 47.149 46.694 47.149 10.629 0 20.645-3.524 28.96-10.198 7.694-6.161 18.427-6.161 26.105 0 8.323 6.673 18.339 10.198 28.968 10.198 25.75 0 46.694-21.149 46.694-47.149 0-4.56 3.694-8.258 8.258-8.258s8.258 3.698 8.258 8.258c-.001 35.105-28.356 63.665-63.211 63.665z" fill="#d4af91"/><path d="M211.445 361.269l17.541 14.625c15.648 13.046 38.383 13.046 54.03 0l17.541-14.624c7.771-6.479 3.24-19.128-6.877-19.128l-75.358-.001c-10.117 0-14.648 12.649-6.877 19.128z" fill="#5d5360"/><path d="M256.001 214.71a8.256 8.256 0 0 1-8.258-8.258v-67.419c0-4.56 3.694-8.258 8.258-8.258s8.258 3.698 8.258 8.258v67.419a8.256 8.256 0 0 1-8.258 8.258z" fill="#ffdc64"/><path d="M173.42 297.29c-13.682 0-24.774-11.092-24.774-24.774v-8.258c0-13.682 11.092-24.774 24.774-24.774s24.774 11.092 24.774 24.774v8.258c.001 13.683-11.091 24.774-24.774 24.774z" fill="#4b3f4e"/><path d="M173.42 239.484v28.903c0 6.841 5.546 12.387 12.387 12.387s12.387-5.546 12.387-12.387v-4.129c.001-13.682-11.091-24.774-24.774-24.774z" fill="#5d5360"/><circle cx="173.421" cy="256" r="8.258" fill="#fff"/><path d="M338.582 297.29c-13.682 0-24.774-11.092-24.774-24.774v-8.258c0-13.682 11.092-24.774 24.774-24.774s24.774 11.092 24.774 24.774v8.258c0 13.683-11.092 24.774-24.774 24.774z" fill="#4b3f4e"/><path d="M338.582 239.484v28.903c0 6.841 5.546 12.387 12.387 12.387s12.387-5.546 12.387-12.387v-4.129c0-13.682-11.092-24.774-24.774-24.774z" fill="#5d5360"/><circle cx="338.581" cy="256" r="8.258" fill="#fff"/><path d="M260.953 374.633l-17.542-20.173c-2.924-3.363-4.101-7.929-3.9-12.319h-21.189c-10.117 0-14.648 12.649-6.878 19.128l17.541 14.625c11.942 9.957 27.993 12.257 41.891 7.016-3.49-2.142-6.867-4.763-9.923-8.277z" fill="#4b3f4e"/><path d="M74.324 313.701c-.376-1.501-.68-3.363-.95-5.388-1.635 21.488-1.146 38.401.95 46.784 3.617 14.469 23.889 35.438 52.017 53.458-.424-1.611-.862-3.229-1.104-4.739-1.26-7.866-1.661-21.163-1.104-38.088-26.974-17.692-46.288-37.94-49.809-52.027z" fill="#f5dcb4"/></symbol><symbol id="icon-panda" viewBox="0 0 512 512"><circle cx="421.16" cy="90.84" r="90.84" fill="#4b3f4e"/><circle cx="421.16" cy="90.84" r="57.806" fill="#6f6571"/><circle cx="90.84" cy="90.84" r="90.84" fill="#4b3f4e"/><circle cx="90.84" cy="90.84" r="57.806" fill="#6f6571"/><ellipse cx="256" cy="280.77" rx="239.48" ry="231.23" fill="#edebed"/><ellipse transform="rotate(60 370.78 286.131)" cx="370.771" cy="286.135" rx="82.578" ry="70.148" fill="#4b3f4e"/><path d="M90.839 272.516c0-91.778 45.208-172.233 113.09-217.422C96.715 78.057 16.516 170.346 16.516 280.774c0 124.145 101.338 225.41 228.498 230.958C154.887 474.98 90.839 381.768 90.839 272.516z" fill="#dbd9dc"/><path d="M355.097 305.548c-13.682 0-24.774-11.092-24.774-24.774v-8.258c0-13.682 11.092-24.774 24.774-24.774s24.774 11.092 24.774 24.774v8.258c0 13.683-11.092 24.774-24.774 24.774z" fill="#5d5360"/><path d="M355.097 247.742v28.903c0 6.841 5.546 12.387 12.387 12.387s12.387-5.546 12.387-12.387v-4.129c0-13.682-11.092-24.774-24.774-24.774z" fill="#6f6571"/><g fill="#fff"><circle cx="355.1" cy="264.26" r="8.258"/><path d="M338.581 404.645c0-18.243-22.595-33.032-50.466-33.032-12.201 0-23.389 2.835-32.115 7.551-8.726-4.716-19.914-7.551-32.115-7.551-27.871 0-50.466 14.789-50.466 33.032 0 10.966 8.198 20.656 20.764 26.664 1.251 26.482 28.408 47.659 61.817 47.659s60.566-21.177 61.817-47.659c12.566-6.008 20.764-15.698 20.764-26.664z"/></g><path d="M297.29 371.613c0 13.682-18.486 33.032-41.29 33.032s-41.29-19.35-41.29-33.032 18.486-24.774 41.29-24.774 41.29 11.091 41.29 24.774z" fill="#5d5360"/><path d="M338.419 403.024c-.883-4.415-5.157-7.234-9.565-6.431-4.435.81-7.387 5.097-6.653 9.544.04.25.96 6.21-3.734 11.069-4.024 4.169-15.371 10.565-45.972 6.597a127.94 127.94 0 0 0-8.238-.798v-20.837c0-4.56-3.698-5.78-8.258-5.78s-8.258 1.219-8.258 5.78v20.837c-2.753.177-5.5.443-8.238.798-30.605 3.968-41.948-2.427-45.972-6.597-4.694-4.859-3.774-10.819-3.758-10.94a8.256 8.256 0 0 0-6.476-9.718c-4.504-.887-8.827 2.004-9.718 6.476-1.04 5.21-.589 16.391 7.71 25.274 8.246 8.827 21.867 13.266 40.625 13.266 6.04 0 12.621-.46 19.718-1.383a111.26 111.26 0 0 1 28.734 0c29.129 3.79 49.435-.214 60.343-11.883 8.299-8.883 8.751-20.064 7.71-25.274z" fill="#6f6571"/><g fill="#4b3f4e"><path d="M272.516 396.387c-22.804 0-41.29-22.114-41.29-37.751 0-2.637.695-5.139 1.678-7.561-10.977 4.453-18.195 11.989-18.195 20.538 0 13.682 18.486 33.032 41.29 33.032 10.504 0 19.984-4.189 27.272-9.955-3.434 1.057-7.028 1.697-10.755 1.697z"/><ellipse transform="rotate(-60 141.249 286.12)" cx="141.253" cy="286.115" rx="82.578" ry="70.148"/></g><path d="M156.903 305.548c-13.682 0-24.774-11.092-24.774-24.774v-8.258c0-13.682 11.092-24.774 24.774-24.774s24.774 11.092 24.774 24.774v8.258c0 13.683-11.091 24.774-24.774 24.774z" fill="#5d5360"/><path d="M156.903 247.742v28.903c0 6.841 5.546 12.387 12.387 12.387s12.387-5.546 12.387-12.387v-4.129c0-13.682-11.091-24.774-24.774-24.774z" fill="#6f6571"/><circle cx="156.9" cy="264.26" r="8.258" fill="#fff"/></symbol><symbol id="icon-pig" viewBox="0 0 512 512"><path d="M512 11.24s-8.25 143.994-107.348 168.768l-74.324-82.582C355.103 64.394 425.496-.082 512 11.24z" fill="#ff96a0"/><path d="M404.652 180.009l-39.494-43.882c14.719-46.958 80.785-113.024 145.413-111.335-4.895 36.431-25.471 135.105-105.919 155.217z" fill="#e6646e"/><path d="M0 11.24s8.25 143.994 107.348 168.768l74.324-82.582C156.897 64.394 86.504-.082 0 11.24z" fill="#ff96a0"/><path d="M107.348 180.009l39.494-43.882C132.123 89.169 66.057 23.103 1.428 24.792 6.324 61.223 26.9 159.897 107.348 180.009z" fill="#e6646e"/><path d="M462.451 320.398c0 100.339-92.433 181.68-206.455 181.68s-206.455-81.34-206.455-181.68c0-115.615 92.433-247.746 206.455-247.746s206.455 132.131 206.455 247.746z" fill="#ffaab4"/><path d="M185.253 403.893c8.888 28.305 33.329 48.636 62.089 48.636h17.308c29.068 0 53.725-20.769 62.369-49.549l-141.766.913z" fill="#dc4655"/><path d="M348.818 372.484c0 52.988-64.93 36.235-92.749 36.235-27.239 0-92.71 16.753-92.71-36.235 0-54.119 41.463-92.106 92.676-92.106s92.783 37.987 92.783 92.106z" fill="#e6646e"/><path d="M121.112 323.363c0-98.217 56.178-207.355 134.961-250.707-.026 0-.051-.003-.077-.003-114.022 0-206.455 132.131-206.455 247.746 0 94.685 82.321 172.416 187.409 180.881-68.59-32.19-115.838-99.753-115.838-177.917z" fill="#ff96a0"/><g fill="#a5465a"><ellipse transform="rotate(-61.68 221.862 356.622)" cx="221.864" cy="356.619" rx="20.495" ry="16.703"/><ellipse transform="rotate(61.68 290.153 356.62)" cx="290.149" cy="356.62" rx="20.495" ry="16.703"/></g><path d="M165.156 270.849c-13.683 0-24.775-11.092-24.775-24.775v-8.258c0-13.683 11.092-24.775 24.775-24.775 13.683 0 24.775 11.092 24.775 24.775v8.258c-.001 13.683-11.093 24.775-24.775 24.775z" fill="#4b3f4e"/><path d="M165.155 213.042v28.904c0 6.841 5.546 12.387 12.387 12.387s12.387-5.546 12.387-12.387v-4.129c.001-13.683-11.091-24.775-24.774-24.775z" fill="#5d5360"/><circle cx="165.16" cy="229.561" r="8.258" fill="#fff"/><path d="M346.836 270.849c-13.683 0-24.775-11.092-24.775-24.775v-8.258c0-13.683 11.092-24.775 24.775-24.775 13.683 0 24.775 11.092 24.775 24.775v8.258c0 13.683-11.092 24.775-24.775 24.775z" fill="#4b3f4e"/><path d="M346.836 213.042v28.904c0 6.841 5.546 12.387 12.387 12.387s12.387-5.546 12.387-12.387v-4.129c.001-13.683-11.091-24.775-24.774-24.775z" fill="#5d5360"/><circle cx="346.84" cy="229.561" r="8.258" fill="#fff"/></symbol><symbol id="icon-rabbit" viewBox="0 0 512 512"><path d="M478.968 0s-3.969 183.681-105.29 267.871L299.871 208C366.574 66.722 478.968 0 478.968 0z" fill="#aea8af"/><path d="M373.677 267.871l-32.684-26.514-2.454-21.745C356.36 178.724 403.169 82.115 478.968 0c0 0-3.97 183.681-105.291 267.871z" fill="#9c969e"/><path d="M33.032 0s3.969 183.681 105.29 267.871L212.129 208C145.426 66.722 33.032 0 33.032 0z" fill="#aea8af"/><path d="M138.323 267.871l32.684-26.514 2.454-21.745C155.64 178.724 108.831 82.115 33.032 0c0 0 3.97 183.681 105.291 267.871z" fill="#9c969e"/><path d="M401.638 361.412c-8.914-15.482-14.206-32.579-13.566-50.215.038-1.053.058-2.111.058-3.172 0-60.659-59.156-109.832-132.129-109.832s-132.129 49.174-132.129 109.832c0 1.061.019 2.118.058 3.172.639 17.636-4.652 34.733-13.566 50.215-7.251 12.594-11.266 26.338-11.266 40.755C99.097 462.826 169.345 512 256 512s156.903-49.174 156.903-109.832c0-14.418-4.014-28.162-11.265-40.756z" fill="#c9c6ca"/><path d="M159.656 415.105c0-16.695 4.015-32.608 11.266-47.191 8.914-17.926 14.206-37.723 13.566-58.144a117.893 117.893 0 0 1-.057-3.672c0-45.302 24.685-84.965 61.739-107.492-68.364 4.195-122.298 51.52-122.298 109.419 0 1.061.019 2.118.057 3.172.64 17.636-4.652 34.733-13.566 50.215-7.251 12.594-11.266 26.338-11.266 40.756 0 48.893 45.67 90.279 108.754 104.512-29.66-23.137-48.195-55.575-48.195-91.575z" fill="#c0bcc1"/><path d="M181.677 388.129c-13.682 0-24.774-11.092-24.774-24.774v-8.258c0-13.682 11.092-24.774 24.774-24.774s24.774 11.092 24.774 24.774v8.258c.001 13.682-11.091 24.774-24.774 24.774z" fill="#4b3f4e"/><path d="M181.677 330.323v28.903c0 6.841 5.546 12.387 12.387 12.387s12.387-5.546 12.387-12.387v-4.129c.001-13.683-11.091-24.774-24.774-24.774z" fill="#5d5360"/><circle cx="181.68" cy="346.84" r="8.258" fill="#fff"/><path d="M330.323 388.129c-13.682 0-24.774-11.092-24.774-24.774v-8.258c0-13.682 11.092-24.774 24.774-24.774s24.774 11.092 24.774 24.774v8.258c0 13.682-11.092 24.774-24.774 24.774z" fill="#4b3f4e"/><path d="M330.323 330.323v28.903c0 6.841 5.546 12.387 12.387 12.387s12.387-5.546 12.387-12.387v-4.129c0-13.683-11.092-24.774-24.774-24.774z" fill="#5d5360"/><circle cx="330.32" cy="346.84" r="8.258" fill="#fff"/><path d="M330.323 412.903c-49.548-16.516-57.806-41.29-57.806-57.806s-8.258-24.774-16.516-24.774-16.516 8.258-16.516 24.774-8.258 41.29-57.806 57.806c-34.586 11.529-44.987 35.14-42.524 62.384C167.884 497.769 209.517 512 256 512s88.116-14.232 116.847-36.713c2.463-27.244-7.939-50.855-42.524-62.384z" fill="#dbd9dc"/><path d="M284.012 500.988c-9.79 0-19.085-3.278-26.871-9.48-.649-.524-1.633-.52-2.282-.004-7.79 6.206-17.081 9.484-26.871 9.484-14.782 0-28.512-7.585-36.73-20.286-2.476-3.827-1.379-8.94 2.452-11.419 3.823-2.476 8.94-1.375 11.419 2.452 5.157 7.976 13.706 12.738 22.859 12.738 6.012 0 11.746-2.036 16.577-5.883 6.621-5.282 16.242-5.286 22.871.004 4.827 3.843 10.56 5.879 16.577 5.879 9.153 0 17.698-4.762 22.859-12.742 2.48-3.823 7.593-4.919 11.419-2.452 3.831 2.48 4.927 7.593 2.452 11.419-8.219 12.705-21.949 20.29-36.731 20.29z" fill="#c0bcc1"/><path d="M256 412.903c20.787 0 37.638 12.262 37.638 27.389 0 14.588-15.818 22.269-27.234 27.949-6.617 3.292-14.19 3.292-20.807 0-11.416-5.68-27.234-13.361-27.234-27.949-.001-15.126 16.85-27.389 37.637-27.389z" fill="#ff96a0"/><path d="M264.416 464.756c-11.416-6.727-27.234-15.826-27.234-33.105 0-6.234 2.076-12.036 5.611-16.98-14.262 3.896-24.431 13.881-24.431 25.621 0 14.587 15.818 22.269 27.234 27.949 6.617 3.292 14.19 3.292 20.807 0a827.9 827.9 0 0 0 2.834-1.416c-1.641-.487-3.261-1.15-4.821-2.069z" fill="#ff8087"/><path d="M207.851 506.68c-27.293-21.29-44.97-50.498-47.65-83.068-17.48 12.784-22.899 31.203-21.048 51.675l-.021.045c18.344 14.33 41.934 25.305 68.719 31.348z" fill="#c9c6ca"/></symbol><symbol id="icon-tiger" viewBox="0 0 511.999 511.999"><path d="M440.822 1.159c24.009-6.059 47.346 12.423 46.374 37.166-1.206 30.716-16.487 85.546-49.519 118.579L330.323 66.065c41.29-41.291 84.901-58.445 110.499-64.906z" fill="#ebaf4b"/><path d="M356.444 88.167c37.96-37.616 80.591-64.159 94.891-67.004 14.681-2.92 25.772 14.679 21.982 35.341-4.421 24.106-23.178 66.993-44.861 92.596l-72.012-60.933z" fill="#e19c46"/><path d="M71.178 1.159C47.169-4.9 23.832 13.582 24.803 38.325c1.206 30.716 16.487 85.546 49.519 118.579l107.355-90.839C140.387 24.774 96.776 7.62 71.178 1.159z" fill="#ebaf4b"/><path d="M155.556 88.167c-37.96-37.616-80.591-64.159-94.891-67.004-14.681-2.92-25.772 14.679-21.982 35.341 4.421 24.106 23.178 66.993 44.861 92.596l72.012-60.933z" fill="#e19c46"/><path d="M256 41.29c-272.516 0-239.484 313.806-239.484 313.806l31.312-11.527s1.72 58.323 26.494 118.882l23.742-27.871c17.548 33.032 50.581 60.903 50.581 60.903l24.774-33.032H338.58l24.774 33.032s33.032-27.871 50.581-60.903l23.742 27.871c24.774-60.559 26.494-118.882 26.494-118.882l31.312 11.527c.001.001 33.033-313.806-239.483-313.806z" fill="#ffc850"/><g fill="#ebaf4b"><path d="M90.839 231.226c0-68.979 29.155-131.35 76.16-176.268C-8.708 115.301 16.516 355.097 16.516 355.097l31.312-11.527s1.72 58.323 26.494 118.882l23.742-27.871c17.548 33.032 50.581 60.903 50.581 60.903l24.774-33.032h81.511C158.966 426.703 90.839 336.69 90.839 231.226zM350.893 478.868l12.462 16.615s8.731-7.386 19.587-19.016a265.879 265.879 0 0 1-32.049 2.401z"/></g><path d="M36.328 191.86C7.909 272.367 16.516 355.097 16.516 355.097l31.312-11.527s1.72 58.323 26.494 118.882l23.742-27.871c17.548 33.032 50.581 60.903 50.581 60.903l24.774-33.032C120.845 417.388 6.84 331.321 36.328 191.86z" fill="#f5dcb4"/><path d="M475.705 191.86c28.419 80.507 19.811 163.237 19.811 163.237l-31.312-11.527s-1.72 58.323-26.494 118.882l-23.742-27.871c-17.548 33.032-50.581 60.903-50.581 60.903l-24.774-33.032c52.575-45.064 166.579-131.131 137.092-270.592z" fill="#faebc8"/><path d="M256 437.677l-81.719 18.952c5.111 31.401 32.358 55.37 65.203 55.37h33.032c32.709 0 59.867-23.772 65.139-54.981L256 437.677z" fill="#f5dcb4"/><g fill="#5d5360"><path d="M131.545 365.423a9.158 9.158 0 0 1-4.328-1.093 124.905 124.905 0 0 1-14.342-8.923c-4.442-3.194-5.602-9.609-2.6-14.331 2.994-4.734 9.028-5.96 13.471-2.766a106.344 106.344 0 0 0 12.144 7.552c4.798 2.552 6.739 8.75 4.344 13.851-1.7 3.618-5.126 5.71-8.689 5.71zM92.748 334.742c-3.305 0-6.58-1.484-8.884-4.371-18.14-22.734-25.167-44.754-25.455-45.677-2.032-6.492 1.258-13.508 7.361-15.669 6.072-2.185 12.682 1.327 14.721 7.806.144.452 6.163 18.754 21.127 37.508 4.162 5.218 3.563 13.032-1.342 17.46-2.192 1.975-4.867 2.943-7.528 2.943zM372.197 365.423c-3.563 0-6.989-2.093-8.687-5.71-2.395-5.101-.455-11.298 4.344-13.851 4.192-2.23 8.278-4.77 12.144-7.552 4.435-3.194 10.469-1.968 13.471 2.766 3.002 4.722 1.842 11.137-2.6 14.331a124.905 124.905 0 0 1-14.342 8.923 9.207 9.207 0 0 1-4.33 1.093zM410.994 334.742c-2.661 0-5.337-.968-7.527-2.944-4.905-4.427-5.503-12.242-1.342-17.46 15.078-18.895 21.074-37.331 21.127-37.516 2.077-6.464 8.657-9.94 14.744-7.77 6.087 2.177 9.37 9.165 7.338 15.641-.288.923-7.315 22.944-25.455 45.677-2.305 2.888-5.58 4.372-8.885 4.372zM148.653 131.286a10.313 10.313 0 0 1-8.71-4.766c-3.065-4.806-1.661-11.19 3.145-14.258a191.502 191.502 0 0 1 17.468-9.883c5.089-2.54 11.306-.472 13.847 4.633 2.54 5.101.468 11.298-4.637 13.843a169.447 169.447 0 0 0-15.565 8.81 10.281 10.281 0 0 1-5.548 1.621zM313.798 153.887c-1.339 0-2.702-.262-4.016-.819-32.839-13.895-74.726-13.895-107.564 0-5.266 2.214-11.306-.234-13.532-5.488-2.218-5.25.234-11.306 5.484-13.528 37.903-16.024 85.758-16.024 123.661 0 5.25 2.222 7.702 8.278 5.484 13.528a10.334 10.334 0 0 1-9.517 6.307zM363.347 131.286a10.3 10.3 0 0 1-5.548-1.621 169.447 169.447 0 0 0-15.565-8.81c-5.105-2.544-7.177-8.742-4.637-13.843 2.54-5.109 8.75-7.19 13.847-4.633 6.016 3 11.887 6.323 17.468 9.883 4.806 3.069 6.21 9.452 3.145 14.258a10.313 10.313 0 0 1-8.71 4.766zM314.742 111.488c-1.153 0-2.315-.161-3.476-.5-35.339-10.298-75.194-10.298-110.532 0-6.548 1.911-13.444-1.847-15.363-8.423-1.911-6.569 1.863-13.444 8.427-15.359 39.839-11.621 84.564-11.621 124.403 0 6.565 1.915 10.339 8.79 8.427 15.359-1.58 5.411-6.523 8.923-11.886 8.923z"/></g><path d="M152.774 305.548c-15.897 0-28.903-13.006-28.903-28.903v-16.516c0-15.897 13.006-28.903 28.903-28.903 15.897 0 28.903 13.006 28.903 28.903v16.516c0 15.897-13.006 28.903-28.903 28.903z" fill="#4b3f4e"/><path d="M152.774 231.226c-1.413 0-2.769.221-4.129.419v40.871c0 9.121 7.395 16.516 16.516 16.516 9.122 0 16.516-7.395 16.516-16.516v-12.387c0-15.897-13.006-28.903-28.903-28.903z" fill="#5d5360"/><circle cx="152.77" cy="251.87" r="12.387" fill="#fff"/><path d="M359.226 305.548c-15.897 0-28.903-13.006-28.903-28.903v-16.516c0-15.897 13.006-28.903 28.903-28.903 15.897 0 28.903 13.006 28.903 28.903v16.516c0 15.897-13.006 28.903-28.903 28.903z" fill="#4b3f4e"/><path d="M359.226 231.226c-1.413 0-2.769.221-4.129.419v40.871c0 9.121 7.395 16.516 16.516 16.516 9.122 0 16.516-7.395 16.516-16.516v-12.387c0-15.897-13.007-28.903-28.903-28.903z" fill="#5d5360"/><circle cx="359.23" cy="251.87" r="12.387" fill="#fff"/><path d="M309.677 363.355c-22.977 0-42.987 10.034-53.677 24.9-10.691-14.866-30.7-24.9-53.677-24.9-34.206 0-61.935 22.183-61.935 49.548s27.729 49.548 61.935 49.548c22.977 0 42.987-10.034 53.677-24.9 10.691 14.866 30.7 24.9 53.677 24.9 34.206 0 61.935-22.183 61.935-49.548.001-27.365-27.728-49.548-61.935-49.548z" fill="#faebc8"/><path d="M202.876 381.513l20.915 17.437c18.657 15.555 45.764 15.555 64.421 0l20.914-17.437c9.265-7.725 3.863-22.807-8.2-22.807l-89.849-.001c-12.065.001-17.467 15.083-8.201 22.808z" fill="#ff8087"/><path d="M256.823 405.483l-20.915-25.41c-4.755-5.777-5.626-14.363-3.738-21.367h-21.094c-12.063 0-17.465 15.082-8.2 22.807l20.915 17.437c10.743 8.957 24.276 12.582 37.396 11.224-1.494-1.45-2.96-2.984-4.364-4.691z" fill="#e6646e"/><path d="M306.097 470.71c-16.831 0-32.694-5.581-45.855-16.133-2.5-2-5.992-2-8.476 0-13.169 10.552-29.032 16.133-45.863 16.133-40.677 0-73.774-33.343-73.774-74.323 0-4.56 3.694-8.258 8.258-8.258s8.258 3.698 8.258 8.258c0 31.875 25.685 57.806 57.258 57.806 13.04 0 25.323-4.323 35.532-12.504 8.565-6.879 20.556-6.879 29.137 0 10.202 8.181 22.484 12.504 35.524 12.504 31.573 0 57.258-25.931 57.258-57.806a8.256 8.256 0 0 1 8.258-8.258 8.256 8.256 0 0 1 8.258 8.258c.001 40.98-33.096 74.323-73.773 74.323z" fill="#d4af91"/></symbol></svg>